<?xml version="1.0" encoding="iso-8859-1"?>
<!-- Generator: Adobe Illustrator 19.0.0, SVG Export Plug-In . SVG Version: 6.00 Build 0)  -->
<svg version="1.1" id="Layer_1" xmlns="http://www.w3.org/2000/svg" xmlns:xlink="http://www.w3.org/1999/xlink" x="0px" y="0px"
	 viewBox="0 0 511.999 511.999" style="enable-background:new 0 0 511.999 511.999;" xml:space="preserve">
<g>
	<g>
		<g>
			<polygon points="215.549,232.368 215.549,198.992 223.383,191.159 195.136,162.912 184.055,173.992 199.878,189.815 
				199.878,232.368 			"/>
			<polygon points="311.423,232.368 311.423,189.815 327.246,173.992 316.166,162.912 287.919,191.159 295.752,198.992 
				295.752,232.368 			"/>
			<rect x="231.677" y="336.39" width="47.937" height="15.671"/>
			<path d="M279.465,272.315h-15.671c0,4.49-3.653,8.144-8.144,8.144c-4.49,0-8.144-3.653-8.144-8.144h-15.671
				c0,13.131,10.683,23.814,23.814,23.814C268.782,296.129,279.465,285.447,279.465,272.315z"/>
			<rect x="407.608" y="432.107" width="15.671" height="79.89"/>
			<rect x="88.028" y="432.107" width="15.671" height="79.89"/>
			<rect x="191.738" y="56.749" width="15.979" height="15.671"/>
			<rect x="303.585" y="56.749" width="15.979" height="15.671"/>
			<rect x="151.788" y="56.749" width="23.968" height="15.671"/>
			<rect x="335.543" y="56.749" width="23.968" height="15.671"/>
			<path d="M255.651,40.774c-10.387,0-19.236,6.686-22.483,15.979h-17.464v15.671h17.464c3.247,9.293,12.097,15.979,22.483,15.979
				c10.387,0,19.236-6.686,22.483-15.979h17.465V56.753h-17.465C274.887,47.461,266.037,40.774,255.651,40.774z M255.651,72.732
				c-4.49,0-8.144-3.653-8.144-8.144c0-4.49,3.653-8.144,8.144-8.144c4.49,0,8.144,3.653,8.144,8.144
				C263.794,69.079,260.141,72.732,255.651,72.732z"/>
			<path d="M488.467,419.483c-0.414-0.788-0.85-1.564-1.275-2.346v-88.895c0-21.942-17.851-39.793-39.793-39.793h-55.927v15.671
				h24.307c-5.122,6.698-8.174,15.059-8.174,24.123v8.148c-0.051,0-0.102-0.004-0.154-0.004c-0.321,0-0.639,0.011-0.958,0.024
				c-9.781-5.298-20.015-9.773-30.534-13.359c4.765-13.371,7.368-27.759,7.368-42.746v-48.091h0.154
				c17.537,0,31.803-14.268,31.803-31.804s-14.267-31.803-31.803-31.803h-0.154v-32.112h-15.671v143.811
				c0,59.127-46.053,107.693-104.171,111.729v-7.865h-15.671v7.865c-58.118-4.036-104.171-52.602-104.171-111.729V136.494h-15.671
				v32.112h-0.154c-17.537,0-31.804,14.267-31.804,31.803s14.268,31.804,31.804,31.804h0.154v48.091
				c0,15.066,2.631,29.528,7.444,42.96c-10.323,3.556-20.368,7.971-29.976,13.18c-0.527-0.036-1.055-0.06-1.59-0.06
				c-0.051,0-0.102,0.003-0.154,0.004v-8.148c0-9.064-3.052-17.425-8.174-24.123h24.306v-15.671H63.902
				c-21.942,0-39.793,17.851-39.793,39.793v90.187c-0.261,0.483-0.529,0.962-0.782,1.449C8.615,448.103,0.839,479.958,0.839,511.999
				H16.51c0-29.529,7.163-58.88,20.714-84.879c11.185-21.459,26.729-40.701,45.334-56.275c3.916,7.8,11.987,13.169,21.293,13.169
				c6.406,0,12.226-2.547,16.511-6.678l58.177,30.799h-2.629v23.968c0,43.969,35.771,79.74,79.74,79.74
				c43.969,0,79.741-35.771,79.741-79.74v-23.968h-2.63l58.177-30.799c4.285,4.13,10.105,6.678,16.511,6.678
				c9.469,0,17.664-5.556,21.498-13.579c18.718,15.559,34.366,34.816,45.637,56.323c13.675,26.095,20.904,55.571,20.904,85.242
				h15.671C511.16,479.805,503.313,447.813,488.467,419.483z M383.328,184.276h0.154c8.896,0,16.133,7.237,16.133,16.133
				c0,8.896-7.237,16.134-16.133,16.134h-0.154V184.276z M127.973,216.542h-0.154c-8.896,0-16.134-7.238-16.134-16.134
				c0-8.896,7.238-16.133,16.134-16.133h0.154V216.542z M88.025,342.424c-2.8,2.496-5.006,5.64-6.384,9.197
				c-15.928,11.819-30.078,26.041-41.861,41.984v-65.364c0-13.301,10.821-24.123,24.123-24.123s24.123,10.821,24.123,24.123V342.424
				z M103.85,368.344c-4.49,0-8.144-3.653-8.144-8.144c0-3.956,2.835-7.258,6.581-7.989l1.409-0.146
				c0.052-0.001,0.102-0.007,0.154-0.007c4.49,0,8.144,3.653,8.144,8.144S108.341,368.344,103.85,368.344z M255.652,407.982
				c8.007,0,15.841-0.748,23.443-2.165c-2.557,10.574-12.096,18.452-23.444,18.452c-11.348,0-20.885-7.879-23.443-18.453
				C239.809,407.234,247.644,407.982,255.652,407.982z M127.449,363.358c0.138-1.034,0.216-2.087,0.216-3.158
				c0-5.596-1.944-10.741-5.185-14.81c6.235-2.92,12.63-5.492,19.143-7.689c15.183,30.04,41.889,53.3,74.271,63.937
				c0.119,3.22,0.624,6.339,1.467,9.321L127.449,363.358z M319.721,432.105c0,35.328-28.741,64.07-64.071,64.07
				c-35.328,0-64.07-28.741-64.07-64.07v-17.063l64.07,33.919l64.071-33.919V432.105z M383.852,363.357l-89.913,47.601
				c0.843-2.982,1.348-6.101,1.467-9.321c32.456-10.661,59.21-34.003,74.374-64.142c6.542,2.182,12.966,4.744,19.229,7.656
				c-3.356,4.105-5.373,9.345-5.373,15.048C383.636,361.271,383.715,362.323,383.852,363.357z M407.451,368.344
				c-4.49,0-8.144-3.653-8.144-8.144c0-4.49,3.653-8.144,8.144-8.144c0.052,0,0.102,0.006,0.154,0.007l1.409,0.146
				c3.744,0.731,6.581,4.034,6.581,7.989C415.594,364.69,411.942,368.344,407.451,368.344z M471.521,392.667
				c-11.892-15.896-26.141-30.052-42.167-41.789c-1.391-3.25-3.476-6.135-6.078-8.454v-14.183c0-13.301,10.821-24.123,24.123-24.123
				c13.301,0,24.123,10.821,24.123,24.123V392.667z"/>
			<path d="M255.651,173.005l35.724-44.655h91.953V4.768l-63.509,27.218L255.848,0l-71.905,31.958l-55.97-27.985V128.35h91.954
				L255.651,173.005z M255.651,147.919l-15.655-19.569h31.311L255.651,147.919z M143.644,29.329l39.904,19.952l71.905-31.958
				l63.86,31.93l48.344-20.719v84.145H143.644V29.329z"/>
		</g>
	</g>
</g>
<g>
</g>
<g>
</g>
<g>
</g>
<g>
</g>
<g>
</g>
<g>
</g>
<g>
</g>
<g>
</g>
<g>
</g>
<g>
</g>
<g>
</g>
<g>
</g>
<g>
</g>
<g>
</g>
<g>
</g>
</svg>
